HIERARCHY
ROOT SpineBase
{
  OFFSET 0.000000 0.000000 0.000000
  CHANNELS 6 Xposition Yposition Zposition Zrotation Xrotation Yrotation
  JOINT SpineMid
  {
    OFFSET 0.000000 25.970381 0.000000
    CHANNELS 3 Zrotation Xrotation Yrotation
    JOINT SpineShoulder
    {
      OFFSET -0.267357 19.358822 -0.588557
      CHANNELS 3 Zrotation Xrotation Yrotation
      JOINT Neck
      {
        OFFSET -0.061648 6.465696 -0.468677
        CHANNELS 3 Zrotation Xrotation Yrotation
        JOINT Head
        {
          OFFSET -3.073278 11.429382 1.032463
          CHANNELS 3 Zrotation Xrotation Yrotation
          End Site
          {
            OFFSET 0 0 0
          }
        }
      }
      JOINT ShoulderLeft
      {
        OFFSET -13.528022 -3.273849 4.146633
        CHANNELS 3 Zrotation Xrotation Yrotation
        JOINT ElbowLeft
        {
          OFFSET -0.791836 -21.927082 2.156912
          CHANNELS 3 Zrotation Xrotation Yrotation
          JOINT WristLeft
          {
            OFFSET -1.476603 -20.694065 -4.602076
            CHANNELS 3 Zrotation Xrotation Yrotation
            JOINT HandLeft
            {
              OFFSET 0.688552 -6.716071 -1.818093
              CHANNELS 3 Zrotation Xrotation Yrotation
              JOINT HandTipLeft
              {
                OFFSET -0.544239 -6.267212 -2.328151
                CHANNELS 3 Zrotation Xrotation Yrotation
                End Site
                {
                  OFFSET 0 0 0
                }
              }
              JOINT ThumbLeft
              {
                OFFSET 3.003863 1.445246 -2.891990
                CHANNELS 3 Zrotation Xrotation Yrotation
                End Site
                {
                  OFFSET 0 0 0
                }
              }
            }
          }
        }
      }
      JOINT ShoulderRight
      {
        OFFSET 11.720049 -1.873948 -5.736592
        CHANNELS 3 Zrotation Xrotation Yrotation
        JOINT ElbowRight
        {
          OFFSET 3.888434 -20.886487 -2.743597
          CHANNELS 3 Zrotation Xrotation Yrotation
          JOINT WristRight
          {
            OFFSET -0.632738 -18.580200 -6.602999
            CHANNELS 3 Zrotation Xrotation Yrotation
            JOINT HandRight
            {
              OFFSET -1.054644 -7.314333 -0.412267
              CHANNELS 3 Zrotation Xrotation Yrotation
              JOINT HandTipRight
              {
                OFFSET -0.163834 -5.491832 -2.722254
                CHANNELS 3 Zrotation Xrotation Yrotation
                End Site
                {
                  OFFSET 0 0 0
                }
              }
              JOINT ThumbRight
              {
                OFFSET 1.473297 1.387783 -2.379857
                CHANNELS 3 Zrotation Xrotation Yrotation
                End Site
                {
                  OFFSET 0 0 0
                }
              }
            }
          }
        }
      }
    }
  }
  JOINT HipLeft
  {
    OFFSET -5.804331 0.333337 -1.232277
    CHANNELS 3 Zrotation Xrotation Yrotation
    JOINT KneeLeft
    {
      OFFSET 5.683625 -35.290691 2.463487
      CHANNELS 3 Zrotation Xrotation Yrotation
      JOINT AnkleLeft
      {
        OFFSET 6.249075 -32.828031 3.967257
        CHANNELS 3 Zrotation Xrotation Yrotation
        JOINT FootLeft
        {
          OFFSET -3.197943 -2.889627 -11.325127
          CHANNELS 3 Zrotation Xrotation Yrotation
          End Site
          {
            OFFSET 0 0 0
          }
        }
      }
    }
  }
  JOINT HipRight
  {
    OFFSET 5.397917 1.216497 -4.678974
    CHANNELS 3 Zrotation Xrotation Yrotation
    JOINT KneeRight
    {
      OFFSET 6.640689 -31.034715 -1.444545
      CHANNELS 3 Zrotation Xrotation Yrotation
      JOINT AnkleRight
      {
        OFFSET 3.504261 -34.667195 6.462980
        CHANNELS 3 Zrotation Xrotation Yrotation
        JOINT FootRight
        {
          OFFSET -3.281682 -3.053583 -10.908869
          CHANNELS 3 Zrotation Xrotation Yrotation
          End Site
          {
            OFFSET 0 0 0
          }
        }
      }
    }
  }
}
MOTION
Frames: 5
Frame Time: 0.033333
24.484070 73.610503 368.786760 -0.000000 0.000000 17.102035 -0.000000 0.000000 -17.102035 -0.000000 0.000000 0.000000 -0.000000 0.000000 0.000000 0.000000 0.000000 0.000000 -0.000000 0.000000 0.000000 -0.000000 0.000000 0.000000 -0.000000 0.000000 0.000000 -0.000000 0.000000 0.000000 0.000000 0.000000 0.000000 0.000000 0.000000 0.000000 -0.000000 0.000000 0.000000 -0.000000 0.000000 0.000000 -0.000000 0.000000 0.000000 -0.000000 0.000000 0.000000 0.000000 0.000000 0.000000 0.000000 0.000000 0.000000 -0.000000 0.000000 -17.102035 -0.000000 0.000000 0.000000 -0.000000 0.000000 0.000000 0.000000 0.000000 0.000000 -0.000000 0.000000 -17.102035 -0.000000 0.000000 0.000000 -0.000000 0.000000 0.000000 0.000000 0.000000 0.000000
24.432103 73.612107 368.801441 -0.079024 -0.064112 17.117173 0.094394 0.038013 -17.117249 -0.000000 0.000000 0.000000 -0.000000 0.000000 0.000000 0.000000 0.000000 0.000000 -0.000000 0.000000 0.000000 -0.000000 0.000000 0.000000 -1.210789 -1.342750 0.176676 2.548704 -2.806061 -0.331300 0.000000 0.000000 0.000000 0.000000 0.000000 0.000000 -0.000000 0.000000 0.000000 0.691783 -0.609892 -0.221861 1.027895 0.289293 0.165431 -1.366195 -2.195971 -0.039633 0.000000 0.000000 0.000000 0.000000 0.000000 0.000000 0.094394 0.038013 -17.117249 -0.000000 0.000000 0.000000 -0.000000 0.000000 0.000000 0.000000 0.000000 0.000000 0.094394 0.038013 -17.117249 -0.000000 0.000000 0.000000 -0.000000 0.000000 0.000000 0.000000 0.000000 0.000000
24.397481 73.610298 368.812934 -0.127514 -0.119419 17.129454 0.157031 0.076565 -17.129691 -0.000000 0.000000 0.000000 -0.000000 0.000000 0.000000 0.000000 0.000000 0.000000 -0.000000 0.000000 0.000000 -0.000000 0.000000 0.000000 -2.194445 -2.233125 0.324725 4.276559 -5.079201 -0.516921 0.000000 0.000000 0.000000 0.000000 0.000000 0.000000 0.676153 -0.558806 -0.189468 0.658964 -0.544221 -0.241956 1.754131 0.785494 0.272910 -2.355926 -4.306252 -0.064806 0.000000 0.000000 0.000000 0.000000 0.000000 0.000000 0.157031 0.076565 -17.129691 -0.000000 0.000000 0.000000 -0.000000 0.000000 0.000000 0.000000 0.000000 0.000000 0.157031 0.076565 -17.129691 -0.000000 0.000000 0.000000 -0.000000 0.000000 0.000000 0.000000 0.000000 0.000000
24.380202 73.605076 368.821239 -0.145425 -0.165892 17.138885 0.187854 0.115670 -17.139285 -0.000000 0.000000 0.000000 -0.000000 0.000000 0.000000 0.000000 0.000000 0.000000 -0.000000 0.000000 0.000000 -0.000000 0.000000 0.000000 -2.966567 -2.689529 0.461967 5.195584 -6.723925 -0.564524 0.000000 0.000000 0.000000 0.000000 0.000000 0.000000 1.002432 -0.886736 -0.288832 0.932807 -0.603292 -0.339482 2.151741 1.505219 0.326854 -2.955288 -6.280132 -0.082382 0.000000 0.000000 0.000000 0.000000 0.000000 0.000000 -0.718662 0.395379 -17.201528 0.948678 0.000926 0.066278 -0.000000 0.000000 0.000000 0.000000 0.000000 0.000000 0.187854 0.115670 -17.139285 -0.000000 0.000000 0.000000 -0.000000 0.000000 0.000000 0.000000 0.000000 0.000000
24.380268 73.596441 368.826356 -0.132740 -0.203509 17.145470 0.186836 0.155333 -17.145959 -0.000000 0.000000 0.000000 -0.000000 0.000000 0.000000 0.000000 0.000000 0.000000 -0.000000 0.000000 0.000000 -0.000000 0.000000 0.000000 -3.539242 -2.724272 0.600631 5.325355 -7.699115 -0.485020 0.000000 0.000000 0.000000 0.000000 0.000000 0.000000 1.322119 -1.247412 -0.391242 1.176410 -0.530002 -0.426596 2.197998 2.462613 0.333963 -3.153896 -8.083397 -0.093068 0.000000 0.000000 0.000000 0.000000 0.000000 0.000000 -0.957690 0.478866 -17.227314 1.188978 0.030017 0.087379 -0.000000 0.000000 0.000000 0.000000 0.000000 0.000000 0.186836 0.155333 -17.145959 -0.000000 0.000000 0.000000 0.169529 -1.445061 0.996020 0.000000 0.000000 0.000000
